<svg width="16" height="12" viewBox="0 0 16 12" fill="none" xmlns="http://www.w3.org/2000/svg">
<path d="M6.75 0C6.33437 0 6 0.334375 6 0.75C6 1.16563 6.33437 1.5 6.75 1.5H7.25V2.54063C3.7375 2.9125 1 5.8875 1 9.5H15C15 5.8875 12.2625 2.9125 8.75 2.54063V1.5H9.25C9.66563 1.5 10 1.16563 10 0.75C10 0.334375 9.66563 0 9.25 0H8H6.75ZM0.75 10.5C0.334375 10.5 0 10.8344 0 11.25C0 11.6656 0.334375 12 0.75 12H15.25C15.6656 12 16 11.6656 16 11.25C16 10.8344 15.6656 10.5 15.25 10.5H0.75Z" fill="#8B9660"/>
</svg>
