<svg width="24" height="24" viewBox="0 0 24 24" fill="none" xmlns="http://www.w3.org/2000/svg">
<path d="M7.5 12.4313C7.5 12.8297 7.34063 13.2094 7.05938 13.4906L5.80313 14.7469C5.22656 15.3234 4.27969 15.2812 3.4875 15.0844C3.27188 15.0281 3.04688 15 2.8125 15C1.26094 15 0 16.2609 0 17.8125C0 19.3641 1.26094 20.625 2.8125 20.625C3.10781 20.625 3.375 20.8922 3.375 21.1875C3.375 22.7391 4.63594 24 6.1875 24C7.73906 24 9 22.7391 9 21.1875C9 20.9531 8.97187 20.7281 8.91562 20.5078C8.71875 19.7156 8.67187 18.7688 9.25312 18.1922L10.5094 16.9359C10.7906 16.6547 11.1703 16.4953 11.5688 16.4953H15.75C16.0453 16.4953 16.3313 16.4812 16.6172 16.4484C17.175 16.3922 17.3859 15.7219 17.1234 15.2297C16.725 14.4891 16.5 13.6453 16.5 12.7453C16.5 9.84375 18.8484 7.49531 21.75 7.49531C22.125 7.49531 22.4859 7.53281 22.8375 7.60781C23.3859 7.725 23.9672 7.33125 23.8688 6.78281C23.1797 2.92969 19.8047 0 15.75 0C11.1938 0 7.5 3.69375 7.5 8.25V12.4313Z" fill="white"/>
</svg>
