<svg width="23" height="18" viewBox="0 0 23 18" fill="none" xmlns="http://www.w3.org/2000/svg">
<path d="M16.875 1.6875C16.875 0.755859 16.1191 0 15.1875 0H11.8125C10.8809 0 10.125 0.755859 10.125 1.6875V3.375H7.875V0.84375C7.875 0.376172 7.49883 0 7.03125 0C6.56367 0 6.1875 0.376172 6.1875 0.84375V3.375H3.9375V0.84375C3.9375 0.376172 3.56133 0 3.09375 0C2.62617 0 2.25 0.376172 2.25 0.84375V3.375H1.6875C0.755859 3.375 0 4.13086 0 5.0625V8.4375V16.3125C0 17.2441 0.755859 18 1.6875 18H10.6875H11.8125H15.1875H20.8125C21.7441 18 22.5 17.2441 22.5 16.3125V8.4375C22.5 7.50586 21.7441 6.75 20.8125 6.75H16.875V1.6875ZM20.25 12.9375V14.0625C20.25 14.3719 19.9969 14.625 19.6875 14.625H18.5625C18.2531 14.625 18 14.3719 18 14.0625V12.9375C18 12.6281 18.2531 12.375 18.5625 12.375H19.6875C19.9969 12.375 20.25 12.6281 20.25 12.9375ZM8.4375 14.625H7.3125C7.00312 14.625 6.75 14.3719 6.75 14.0625V12.9375C6.75 12.6281 7.00312 12.375 7.3125 12.375H8.4375C8.74688 12.375 9 12.6281 9 12.9375V14.0625C9 14.3719 8.74688 14.625 8.4375 14.625ZM4.5 14.0625C4.5 14.3719 4.24688 14.625 3.9375 14.625H2.8125C2.50312 14.625 2.25 14.3719 2.25 14.0625V12.9375C2.25 12.6281 2.50312 12.375 2.8125 12.375H3.9375C4.24688 12.375 4.5 12.6281 4.5 12.9375V14.0625ZM19.6875 9C19.9969 9 20.25 9.25312 20.25 9.5625V10.6875C20.25 10.9969 19.9969 11.25 19.6875 11.25H18.5625C18.2531 11.25 18 10.9969 18 10.6875V9.5625C18 9.25312 18.2531 9 18.5625 9H19.6875ZM9 6.1875V7.3125C9 7.62188 8.74688 7.875 8.4375 7.875H7.3125C7.00312 7.875 6.75 7.62188 6.75 7.3125V6.1875C6.75 5.87812 7.00312 5.625 7.3125 5.625H8.4375C8.74688 5.625 9 5.87812 9 6.1875ZM3.9375 5.625C4.24688 5.625 4.5 5.87812 4.5 6.1875V7.3125C4.5 7.62188 4.24688 7.875 3.9375 7.875H2.8125C2.50312 7.875 2.25 7.62188 2.25 7.3125V6.1875C2.25 5.87812 2.50312 5.625 2.8125 5.625H3.9375ZM9 10.6875C9 10.9969 8.74688 11.25 8.4375 11.25H7.3125C7.00312 11.25 6.75 10.9969 6.75 10.6875V9.5625C6.75 9.25312 7.00312 9 7.3125 9H8.4375C8.74688 9 9 9.25312 9 9.5625V10.6875ZM3.9375 11.25H2.8125C2.50312 11.25 2.25 10.9969 2.25 10.6875V9.5625C2.25 9.25312 2.50312 9 2.8125 9H3.9375C4.24688 9 4.5 9.25312 4.5 9.5625V10.6875C4.5 10.9969 4.24688 11.25 3.9375 11.25ZM14.625 9.5625V10.6875C14.625 10.9969 14.3719 11.25 14.0625 11.25H12.9375C12.6281 11.25 12.375 10.9969 12.375 10.6875V9.5625C12.375 9.25312 12.6281 9 12.9375 9H14.0625C14.3719 9 14.625 9.25312 14.625 9.5625ZM14.0625 2.25C14.3719 2.25 14.625 2.50312 14.625 2.8125V3.9375C14.625 4.24688 14.3719 4.5 14.0625 4.5H12.9375C12.6281 4.5 12.375 4.24688 12.375 3.9375V2.8125C12.375 2.50312 12.6281 2.25 12.9375 2.25H14.0625ZM14.625 6.1875V7.3125C14.625 7.62188 14.3719 7.875 14.0625 7.875H12.9375C12.6281 7.875 12.375 7.62188 12.375 7.3125V6.1875C12.375 5.87812 12.6281 5.625 12.9375 5.625H14.0625C14.3719 5.625 14.625 5.87812 14.625 6.1875Z" fill="#8B9660"/>
</svg>
