<svg width="36" height="33" viewBox="0 0 36 33" fill="none" xmlns="http://www.w3.org/2000/svg">
<path d="M8.20464 0.689062C8.52105 0.260156 9.0273 0 9.56167 0H26.4367C26.971 0 27.4773 0.253125 27.7937 0.689062L35.6687 11.3766C36.1468 12.0234 36.0976 12.9164 35.5632 13.5141L19.2507 31.5141C18.9343 31.8656 18.4773 32.0695 17.9992 32.0695C17.521 32.0695 17.071 31.8656 16.7476 31.5141L0.435109 13.5141C-0.106297 12.9164 -0.148484 12.0234 0.329641 11.3766L8.20464 0.689062ZM10.9117 3.4875C10.6796 3.66328 10.6164 3.97969 10.764 4.22578L14.8 10.9477L4.44995 11.8125C4.16167 11.8336 3.93667 12.0797 3.93667 12.375C3.93667 12.6703 4.16167 12.9094 4.44995 12.9375L17.95 14.0625C17.9781 14.0625 18.0132 14.0625 18.0414 14.0625L31.5414 12.9375C31.8296 12.9164 32.0546 12.6703 32.0546 12.375C32.0546 12.0797 31.8296 11.8406 31.5414 11.8125L21.1984 10.9547L25.2343 4.23281C25.382 3.98672 25.3187 3.66328 25.0867 3.49453C24.8546 3.32578 24.5312 3.35391 24.3343 3.56484L17.9992 10.4203L11.664 3.55781C11.4671 3.34687 11.1437 3.31875 10.9117 3.4875Z" fill="#8B9660"/>
</svg>
