<svg width="24" height="22" viewBox="0 0 24 22" fill="none" xmlns="http://www.w3.org/2000/svg">
<path d="M5.47106 0.459375C5.682 0.173437 6.0195 0 6.37575 0H17.6258C17.982 0 18.3195 0.16875 18.5304 0.459375L23.7804 7.58438C24.0992 8.01563 24.0664 8.61094 23.7101 9.00937L12.8351 21.0094C12.6242 21.2438 12.3195 21.3797 12.0008 21.3797C11.682 21.3797 11.382 21.2438 11.1664 21.0094L0.291375 9.00937C-0.0695625 8.61094 -0.0976876 8.01563 0.221062 7.58438L5.47106 0.459375ZM7.27575 2.325C7.12106 2.44219 7.07888 2.65312 7.17731 2.81719L9.86794 7.29844L2.96794 7.875C2.77575 7.88906 2.62575 8.05313 2.62575 8.25C2.62575 8.44687 2.77575 8.60625 2.96794 8.625L11.9679 9.375C11.9867 9.375 12.0101 9.375 12.0289 9.375L21.0289 8.625C21.2211 8.61094 21.3711 8.44687 21.3711 8.25C21.3711 8.05313 21.2211 7.89375 21.0289 7.875L14.1336 7.30313L16.8242 2.82187C16.9226 2.65781 16.8804 2.44219 16.7258 2.32969C16.5711 2.21719 16.3554 2.23594 16.2242 2.37656L12.0008 6.94687L7.77731 2.37187C7.64606 2.23125 7.43044 2.2125 7.27575 2.325Z" fill="white"/>
</svg>
