<svg width="18" height="24" viewBox="0 0 18 24" fill="none" xmlns="http://www.w3.org/2000/svg">
<path d="M1.49977 0C1.08258 0 0.684143 0.173437 0.402893 0.478125C0.121643 0.782812 -0.0283574 1.19062 0.00445506 1.60781L1.35445 20.5172C1.49508 22.4813 3.12633 24 5.09508 24H12.9045C14.8732 24 16.5045 22.4813 16.6451 20.5172L17.9951 1.60781C18.0232 1.19062 17.8826 0.782812 17.5966 0.478125C17.3107 0.173437 16.917 0 16.4998 0H1.49977ZM3.42164 7.33594L3.11227 3H14.8873L14.5779 7.33594L13.4435 7.90313C12.5341 8.35781 11.4654 8.35781 10.556 7.90313C9.57633 7.41563 8.42321 7.41563 7.44352 7.90313C6.53414 8.35781 5.46539 8.35781 4.55602 7.90313L3.42164 7.33594Z" fill="white"/>
</svg>
