<svg width="38" height="27" viewBox="0 0 38 27" fill="none" xmlns="http://www.w3.org/2000/svg">
<path d="M5.625 1.875C5.625 0.837891 6.46289 0 7.5 0H9.375C10.4121 0 11.25 0.837891 11.25 1.875V11.25V15V24.375C11.25 25.4121 10.4121 26.25 9.375 26.25H7.5C6.46289 26.25 5.625 25.4121 5.625 24.375V20.625H3.75C2.71289 20.625 1.875 19.7871 1.875 18.75V15C0.837891 15 0 14.1621 0 13.125C0 12.0879 0.837891 11.25 1.875 11.25V7.5C1.875 6.46289 2.71289 5.625 3.75 5.625H5.625V1.875ZM31.875 1.875V5.625H33.75C34.7871 5.625 35.625 6.46289 35.625 7.5V11.25C36.6621 11.25 37.5 12.0879 37.5 13.125C37.5 14.1621 36.6621 15 35.625 15V18.75C35.625 19.7871 34.7871 20.625 33.75 20.625H31.875V24.375C31.875 25.4121 31.0371 26.25 30 26.25H28.125C27.0879 26.25 26.25 25.4121 26.25 24.375V15V11.25V1.875C26.25 0.837891 27.0879 0 28.125 0H30C31.0371 0 31.875 0.837891 31.875 1.875ZM24.375 11.25V15H13.125V11.25H24.375Z" fill="#8B9660"/>
</svg>
