<svg width="30" height="24" viewBox="0 0 30 24" fill="none" xmlns="http://www.w3.org/2000/svg">
<path d="M3.74899 2.25C3.74899 1.65326 3.98604 1.08097 4.408 0.65901C4.82996 0.237053 5.40225 0 5.99899 0C6.59573 0 7.16802 0.237053 7.58998 0.65901C8.01194 1.08097 8.24899 1.65326 8.24899 2.25C8.24899 2.84674 8.01194 3.41903 7.58998 3.84099C7.16802 4.26295 6.59573 4.5 5.99899 4.5C5.40225 4.5 4.82996 4.26295 4.408 3.84099C3.98604 3.41903 3.74899 2.84674 3.74899 2.25ZM5.62399 16.5V22.5C5.62399 23.3297 4.95368 24 4.12399 24C3.2943 24 2.62399 23.3297 2.62399 22.5V15.2438C2.2443 15.675 1.63493 15.8625 1.05368 15.6844C0.261488 15.4359 -0.179137 14.5969 0.0693006 13.8047L1.51774 9.15937C2.10368 7.27969 3.84274 6 5.81149 6H6.18649C8.15524 6 9.8943 7.27969 10.4802 9.15937L11.9287 13.8047C12.1771 14.5969 11.7365 15.4359 10.9443 15.6844C10.3631 15.8672 9.75368 15.675 9.37399 15.2438V22.5C9.37399 23.3297 8.70368 24 7.87399 24C7.0443 24 6.37399 23.3297 6.37399 22.5V16.5H5.62399ZM14.999 0C15.6224 0 16.124 0.501562 16.124 1.125V22.875C16.124 23.4984 15.6224 24 14.999 24C14.3756 24 13.874 23.4984 13.874 22.875V1.125C13.874 0.501562 14.3756 0 14.999 0ZM21.749 2.25C21.749 1.65326 21.986 1.08097 22.408 0.65901C22.83 0.237053 23.4023 0 23.999 0C24.5957 0 25.168 0.237053 25.59 0.65901C26.0119 1.08097 26.249 1.65326 26.249 2.25C26.249 2.84674 26.0119 3.41903 25.59 3.84099C25.168 4.26295 24.5957 4.5 23.999 4.5C23.4023 4.5 22.83 4.26295 22.408 3.84099C21.986 3.41903 21.749 2.84674 21.749 2.25ZM20.624 22.5V18H19.7896C19.2787 18 18.9177 17.4984 19.0771 17.0109L19.499 15.75C19.349 15.75 19.199 15.7266 19.0537 15.6797C18.2615 15.4312 17.8209 14.5922 18.0693 13.8L19.4615 9.3375C20.0802 7.35469 21.9177 6 23.999 6C26.0802 6 27.9177 7.35469 28.5365 9.3375L29.9287 13.8C30.1771 14.5922 29.7365 15.4312 28.9443 15.6797C28.7943 15.7266 28.6443 15.75 28.499 15.75L28.9209 17.0109C29.0849 17.4984 28.7193 18 28.2084 18H27.374V22.5C27.374 23.3297 26.7037 24 25.874 24C25.0443 24 24.374 23.3297 24.374 22.5V18H23.624V22.5C23.624 23.3297 22.9537 24 22.124 24C21.2943 24 20.624 23.3297 20.624 22.5Z" fill="#8B9660"/>
</svg>
