<svg width="9" height="16" viewBox="0 0 9 16" fill="none" xmlns="http://www.w3.org/2000/svg">
<path d="M0.453172 0.915625C0.496922 0.4 0.931297 0 1.45005 0H7.45005C7.9688 0 8.40317 0.4 8.44692 0.915625L8.88442 6.17812C9.07192 8.42813 7.5563 10.4031 5.45005 10.8844V14H6.95005C7.50317 14 7.95005 14.4469 7.95005 15C7.95005 15.5531 7.50317 16 6.95005 16H4.45005H1.95005C1.39692 16 0.950047 15.5531 0.950047 15C0.950047 14.4469 1.39692 14 1.95005 14H3.45005V10.8875C1.3438 10.4062 -0.171828 8.43125 0.0156724 6.18125L0.453172 0.91875V0.915625ZM2.20317 4H6.69692L6.5313 2H2.3688L2.20317 4Z" fill="#8B9660"/>
</svg>
