<svg width="16" height="16" viewBox="0 0 16 16" fill="none" xmlns="http://www.w3.org/2000/svg">
<path d="M16 4.85962L15.9969 7.12837C15.9938 8.75962 15.2469 10.2846 13.9969 11.2877C14 11.2284 14 11.169 14 11.1096V10.8596C14 8.61587 12.8438 6.52837 10.9406 5.33775L9.05937 4.16275C8.79062 3.994 8.5 3.90025 8.20625 3.869L6.77187 1.38462C6.56562 1.02525 6.6875 0.565871 7.04688 0.359621C7.40625 0.153371 7.86562 0.275246 8.07187 0.634621L10.5094 4.8565C10.6125 5.03462 10.8438 5.09712 11.0219 4.994C11.2 4.89087 11.2625 4.65962 11.1594 4.4815L9.22188 1.12525C9.01563 0.765871 9.1375 0.306496 9.49687 0.100246C9.85625 -0.106004 10.3125 0.0158713 10.5188 0.375246L12.6438 4.0565L13.9969 6.40025L14 4.85962C14 4.3065 14.45 3.85962 15 3.85962C15.55 3.85962 16 4.30962 16 4.85962ZM6.62187 2.62525L7.39062 3.95337C6.95625 4.094 6.56563 4.3815 6.30625 4.79712C6.27813 4.84087 6.25313 4.88775 6.22813 4.93462L5.325 3.37212C5.11875 3.01275 5.24062 2.55337 5.6 2.34712C5.95937 2.14087 6.41875 2.26275 6.625 2.62212L6.62187 2.62525ZM5.17188 4.61587L6.00938 6.06587C6.02813 6.25337 6.075 6.43462 6.14375 6.60962H6H5.58437H4.59375L3.875 5.36587C3.66875 5.0065 3.79063 4.54712 4.15 4.34087C4.50938 4.13462 4.96875 4.2565 5.175 4.61587H5.17188ZM7.15312 5.32837C7.44687 4.85962 8.0625 4.719 8.53125 5.00962L10.4125 6.18462C12.0219 7.194 13 8.95962 13 10.8596V11.1096C13 13.7315 10.8719 15.8596 8.25 15.8596H2.75C2.33437 15.8596 2 15.5252 2 15.1096C2 14.694 2.33437 14.3596 2.75 14.3596H5.625C5.83125 14.3596 6 14.1909 6 13.9846C6 13.7784 5.83125 13.6096 5.625 13.6096H1.75C1.33437 13.6096 1 13.2752 1 12.8596C1 12.444 1.33437 12.1096 1.75 12.1096H5.625C5.83125 12.1096 6 11.9409 6 11.7346C6 11.5284 5.83125 11.3596 5.625 11.3596H0.75C0.334375 11.3596 0 11.0252 0 10.6096C0 10.194 0.334375 9.85962 0.75 9.85962H5.625C5.83125 9.85962 6 9.69087 6 9.48462C6 9.27837 5.83125 9.10962 5.625 9.10962H1.75C1.33437 9.10962 1 8.77525 1 8.35962C1 7.944 1.33437 7.60962 1.75 7.60962H6H8.9125L7.46875 6.7065C7 6.41275 6.85937 5.79712 7.15 5.32837H7.15312Z" fill="black"/>
</svg>
