<svg width="18" height="24" viewBox="0 0 18 24" fill="none" xmlns="http://www.w3.org/2000/svg">
<path d="M15.7078 7.5C15.7359 7.25156 15.75 7.00313 15.75 6.75C15.75 3.02344 12.7266 0 9 0C5.27344 0 2.25 3.02344 2.25 6.75C2.25 7.00313 2.26406 7.25156 2.29219 7.5H2.25C1.00781 7.5 0 8.50781 0 9.75C0 10.9922 1.00781 12 2.25 12H4.75781H13.2422H15.75C16.9922 12 18 10.9922 18 9.75C18 8.50781 16.9922 7.5 15.75 7.5H15.7078ZM3 13.5L7.9125 23.3297C8.11875 23.7422 8.53594 24 9 24C9.46406 24 9.88125 23.7422 10.0875 23.3297L15 13.5H3Z" fill="white"/>
</svg>
