<svg width="16" height="13" viewBox="0 0 16 13" fill="none" xmlns="http://www.w3.org/2000/svg">
<path d="M4.375 0C3.40977 0 2.625 0.784766 2.625 1.75V7.875C2.625 8.84023 3.40977 9.625 4.375 9.625H14C14.9652 9.625 15.75 8.84023 15.75 7.875V1.75C15.75 0.784766 14.9652 0 14 0H4.375ZM10.8281 2.91758L13.4531 6.85508C13.5871 7.05742 13.6008 7.31445 13.4859 7.52773C13.3711 7.74102 13.1496 7.875 12.9062 7.875H8.96875H7.65625H5.46875C5.21719 7.875 4.9875 7.73008 4.87812 7.50312C4.76875 7.27617 4.79883 7.00547 4.95742 6.80859L6.70742 4.62109C6.8332 4.46523 7.01914 4.375 7.21875 4.375C7.41836 4.375 7.60703 4.46523 7.73008 4.62109L8.20312 5.21172L9.73438 2.91484C9.85742 2.73438 10.0625 2.625 10.2812 2.625C10.5 2.625 10.7051 2.73437 10.8281 2.91758ZM5.25 2.625C5.25 2.39294 5.34219 2.17038 5.50628 2.00628C5.67038 1.84219 5.89294 1.75 6.125 1.75C6.35706 1.75 6.57962 1.84219 6.74372 2.00628C6.90781 2.17038 7 2.39294 7 2.625C7 2.85706 6.90781 3.07962 6.74372 3.24372C6.57962 3.40781 6.35706 3.5 6.125 3.5C5.89294 3.5 5.67038 3.40781 5.50628 3.24372C5.34219 3.07962 5.25 2.85706 5.25 2.625ZM1.3125 2.40625C1.3125 2.04258 1.01992 1.75 0.65625 1.75C0.292578 1.75 0 2.04258 0 2.40625V8.53125C0 10.5848 1.66523 12.25 3.71875 12.25H12.4688C12.8324 12.25 13.125 11.9574 13.125 11.5938C13.125 11.2301 12.8324 10.9375 12.4688 10.9375H3.71875C2.38984 10.9375 1.3125 9.86016 1.3125 8.53125V2.40625Z" fill="white"/>
</svg>
