<svg width="16" height="24" viewBox="0 0 16 24" fill="none" xmlns="http://www.w3.org/2000/svg">
<path d="M8 20C10.1217 20 12.1566 19.1571 13.6569 17.6569C15.1571 16.1566 16 14.1217 16 12C16 9.87827 15.1571 7.84344 13.6569 6.34315C12.1566 4.84285 10.1217 4 8 4C5.87827 4 3.84344 4.84285 2.34315 6.34315C0.842855 7.84344 0 9.87827 0 12C0 14.1217 0.842855 16.1566 2.34315 17.6569C3.84344 19.1571 5.87827 20 8 20ZM6.75 14.5H7.5V12.5H6.75C6.33437 12.5 6 12.1656 6 11.75C6 11.3344 6.33437 11 6.75 11H8.25C8.66562 11 9 11.3344 9 11.75V14.5H9.25C9.66562 14.5 10 14.8344 10 15.25C10 15.6656 9.66562 16 9.25 16H6.75C6.33437 16 6 15.6656 6 15.25C6 14.8344 6.33437 14.5 6.75 14.5ZM8 8C8.26522 8 8.51957 8.10536 8.70711 8.29289C8.89464 8.48043 9 8.73478 9 9C9 9.26522 8.89464 9.51957 8.70711 9.70711C8.51957 9.89464 8.26522 10 8 10C7.73478 10 7.48043 9.89464 7.29289 9.70711C7.10536 9.51957 7 9.26522 7 9C7 8.73478 7.10536 8.48043 7.29289 8.29289C7.48043 8.10536 7.73478 8 8 8Z" fill="#3B82F6"/>
</svg>
