<svg width="18" height="18" viewBox="0 0 18 18" fill="none" xmlns="http://www.w3.org/2000/svg">
<path d="M8.75488 4.26465C6.27051 4.26465 4.2666 6.26855 4.2666 8.75293C4.2666 11.2373 6.27051 13.2412 8.75488 13.2412C11.2393 13.2412 13.2432 11.2373 13.2432 8.75293C13.2432 6.26855 11.2393 4.26465 8.75488 4.26465ZM8.75488 11.6709C7.14941 11.6709 5.83691 10.3623 5.83691 8.75293C5.83691 7.14355 7.14551 5.83496 8.75488 5.83496C10.3643 5.83496 11.6729 7.14355 11.6729 8.75293C11.6729 10.3623 10.3604 11.6709 8.75488 11.6709ZM14.4736 4.08105C14.4736 4.66309 14.0049 5.12793 13.4268 5.12793C12.8447 5.12793 12.3799 4.65918 12.3799 4.08105C12.3799 3.50293 12.8486 3.03418 13.4268 3.03418C14.0049 3.03418 14.4736 3.50293 14.4736 4.08105ZM17.4463 5.14355C17.3799 3.74121 17.0596 2.49902 16.0322 1.47559C15.0088 0.452148 13.7666 0.131836 12.3643 0.0615234C10.9189 -0.0205078 6.58691 -0.0205078 5.1416 0.0615234C3.74316 0.12793 2.50098 0.448242 1.47363 1.47168C0.446289 2.49512 0.129883 3.7373 0.0595703 5.13965C-0.0224609 6.58496 -0.0224609 10.917 0.0595703 12.3623C0.125977 13.7646 0.446289 15.0068 1.47363 16.0303C2.50098 17.0537 3.73926 17.374 5.1416 17.4443C6.58691 17.5264 10.9189 17.5264 12.3643 17.4443C13.7666 17.3779 15.0088 17.0576 16.0322 16.0303C17.0557 15.0068 17.376 13.7646 17.4463 12.3623C17.5283 10.917 17.5283 6.58887 17.4463 5.14355ZM15.5791 13.9131C15.2744 14.6787 14.6846 15.2686 13.915 15.5771C12.7627 16.0342 10.0283 15.9287 8.75488 15.9287C7.48145 15.9287 4.74316 16.0303 3.59473 15.5771C2.8291 15.2725 2.23926 14.6826 1.93066 13.9131C1.47363 12.7607 1.5791 10.0264 1.5791 8.75293C1.5791 7.47949 1.47754 4.74121 1.93066 3.59277C2.23535 2.82715 2.8252 2.2373 3.59473 1.92871C4.74707 1.47168 7.48145 1.57715 8.75488 1.57715C10.0283 1.57715 12.7666 1.47559 13.915 1.92871C14.6807 2.2334 15.2705 2.82324 15.5791 3.59277C16.0361 4.74512 15.9307 7.47949 15.9307 8.75293C15.9307 10.0264 16.0361 12.7646 15.5791 13.9131Z" fill="white"/>
</svg>
