<svg width="12" height="24" viewBox="0 0 12 24" fill="none" xmlns="http://www.w3.org/2000/svg">
<path d="M6 3C4.34375 3 3 4.34375 3 6V11C3 12.6562 4.34375 14 6 14C7.65625 14 9 12.6562 9 11V6C9 4.34375 7.65625 3 6 3ZM2 9.75C2 9.33437 1.66562 9 1.25 9C0.834375 9 0.5 9.33437 0.5 9.75V11C0.5 13.7844 2.56875 16.0844 5.25 16.45V17.5H3.75C3.33437 17.5 3 17.8344 3 18.25C3 18.6656 3.33437 19 3.75 19H6H8.25C8.66562 19 9 18.6656 9 18.25C9 17.8344 8.66562 17.5 8.25 17.5H6.75V16.45C9.43125 16.0844 11.5 13.7844 11.5 11V9.75C11.5 9.33437 11.1656 9 10.75 9C10.3344 9 10 9.33437 10 9.75V11C10 13.2094 8.20937 15 6 15C3.79063 15 2 13.2094 2 11V9.75Z" fill="#8B9660"/>
</svg>
