<svg width="14" height="13" viewBox="0 0 14 13" fill="none" xmlns="http://www.w3.org/2000/svg">
<path d="M7 0C7.3418 0 7.65898 0.175 7.84219 0.464844L13.7648 9.90937C13.918 10.1527 14 10.4344 14 10.7215C14 11.5664 13.3164 12.25 12.4715 12.25H1.52852C0.683594 12.25 0 11.5664 0 10.7215C0 10.4344 0.0820313 10.1527 0.235156 9.90937L6.15781 0.464844C6.33828 0.175 6.6582 0 7 0ZM8.77734 5.25L7 2.41719L4.83711 5.86523L5.3375 6.53242C5.5125 6.76484 5.8625 6.76484 6.0375 6.53242L6.7375 5.6C6.90156 5.37852 7.16133 5.25 7.4375 5.25H8.77734Z" fill="#6B7280"/>
</svg>
