<svg width="14" height="14" viewBox="0 0 14 14" fill="none" xmlns="http://www.w3.org/2000/svg">
<path d="M6.56485 0.114844C6.83282 -0.0382813 7.16368 -0.0382813 7.43438 0.114844L12.132 2.79727L12.2496 2.84375V2.86836L13.5594 3.61758C13.9039 3.81445 14.0734 4.21914 13.9723 4.60195C13.8711 4.98477 13.5238 5.25273 13.1274 5.25273H0.874618C0.478134 5.25273 0.130868 4.98477 0.0296966 4.60195C-0.0714753 4.21914 0.098056 3.81445 0.442587 3.61758L1.74962 2.86836V2.84375L1.86993 2.8L6.56485 0.114844ZM1.74962 6.125H3.49962V11.375H4.59337V6.125H6.34337V11.375H7.65587V6.125H9.40587V11.375H10.4996V6.125H12.2496V11.4926C12.266 11.5008 12.2824 11.5117 12.2988 11.5227L13.6113 12.3977C13.9313 12.6109 14.0762 13.0102 13.9641 13.3793C13.852 13.7484 13.5102 14 13.1246 14H0.874618C0.489072 14 0.150009 13.7484 0.0378997 13.3793C-0.0742096 13.0102 0.0679779 12.6109 0.390634 12.3977L1.70313 11.5227C1.71954 11.5117 1.73595 11.5035 1.75235 11.4926V6.125H1.74962Z" fill="white"/>
</svg>
