<svg width="16" height="16" viewBox="0 0 16 16" fill="none" xmlns="http://www.w3.org/2000/svg">
<path d="M15.5969 0.198563C15.85 0.386063 16 0.686063 16 1.00169V3.25169V11.5017C16 12.8829 14.6562 14.0017 13 14.0017C11.3438 14.0017 10 12.8829 10 11.5017C10 10.1204 11.3438 9.00169 13 9.00169C13.35 9.00169 13.6875 9.05169 14 9.14544V4.59544L6 6.99544V13.5017C6 14.8829 4.65625 16.0017 3 16.0017C1.34375 16.0017 0 14.8829 0 13.5017C0 12.1204 1.34375 11.0017 3 11.0017C3.35 11.0017 3.6875 11.0517 4 11.1454V6.25169V4.00169C4 3.56106 4.29063 3.17044 4.7125 3.04231L14.7125 0.0423126C15.0156 -0.0483124 15.3438 0.00793764 15.5969 0.198563Z" fill="#8B9660"/>
</svg>
