<svg width="14" height="20" viewBox="0 0 14 20" fill="none" xmlns="http://www.w3.org/2000/svg">
<path d="M2.7207 6.70938L4.88633 8.875L7.51133 11.5L10.0406 14.0293C9.18477 14.6418 8.13477 15 7 15C4.10156 15 1.75 12.6484 1.75 9.75C1.75 8.61523 2.1082 7.56523 2.7207 6.70938ZM9.11367 10.625L8.23867 9.75H10.5V10.625H9.11367ZM9.98867 11.5H10.9375C11.1781 11.5 11.375 11.3031 11.375 11.0625V9.3125C11.375 9.07188 11.1781 8.875 10.9375 8.875H7.36367L3.95938 5.4707C4.81523 4.8582 5.86523 4.5 7 4.5C9.89844 4.5 12.25 6.85156 12.25 9.75C12.25 10.8848 11.8918 11.9348 11.2793 12.7906L9.98867 11.5ZM7 16.75C8.85652 16.75 10.637 16.0125 11.9497 14.6997C13.2625 13.387 14 11.6065 14 9.75C14 7.89348 13.2625 6.11301 11.9497 4.80025C10.637 3.4875 8.85652 2.75 7 2.75C5.14348 2.75 3.36301 3.4875 2.05025 4.80025C0.737498 6.11301 0 7.89348 0 9.75C0 11.6065 0.737498 13.387 2.05025 14.6997C3.36301 16.0125 5.14348 16.75 7 16.75ZM7.4375 5.375C7.19688 5.375 7 5.57188 7 5.8125C7 6.53711 7.58789 7.125 8.3125 7.125H9.1875C9.42813 7.125 9.625 7.32188 9.625 7.5625C9.625 7.80312 9.82187 8 10.0625 8C10.3031 8 10.5 7.80312 10.5 7.5625C10.5 6.83789 9.91211 6.25 9.1875 6.25H8.3125C8.07187 6.25 7.875 6.05312 7.875 5.8125C7.875 5.57188 7.67812 5.375 7.4375 5.375ZM6.27539 11.5L3.65039 8.875H3.0625C2.82188 8.875 2.625 9.07188 2.625 9.3125V11.0625C2.625 11.3031 2.82188 11.5 3.0625 11.5H6.27539Z" fill="#EF4444"/>
</svg>
