<svg width="14" height="13" viewBox="0 0 14 13" fill="none" xmlns="http://www.w3.org/2000/svg">
<path d="M6.19174 1.66397C6.58276 2.83702 6.18354 4.021 5.30034 4.31085C4.41713 4.60069 3.38354 3.88428 2.99253 2.71124C2.60151 1.53819 3.00073 0.354207 3.88393 0.0643628C4.76713 -0.225481 5.80073 0.490925 6.19174 1.66397ZM2.7437 4.55421C3.26049 5.44014 3.13471 6.471 2.46479 6.85382C1.79487 7.23663 0.832369 6.82921 0.318306 5.94327C-0.195756 5.05733 -0.0754437 4.02647 0.594478 3.64366C1.2644 3.26085 2.2269 3.66827 2.74096 4.55421H2.7437ZM1.89057 10.0941C3.32338 6.23038 5.86909 5.24874 6.99838 5.24874C8.12768 5.24874 10.6734 6.23038 12.1062 10.0941C12.2046 10.3593 12.2484 10.6437 12.2484 10.928V10.9718C12.2484 11.6773 11.6769 12.2487 10.9714 12.2487C10.657 12.2487 10.3453 12.2105 10.0417 12.1339L7.63549 11.5323C7.21713 11.4284 6.77963 11.4284 6.36128 11.5323L3.95502 12.1339C3.65151 12.2105 3.33979 12.2487 3.02534 12.2487C2.31987 12.2487 1.74838 11.6773 1.74838 10.9718V10.928C1.74838 10.6437 1.79213 10.3593 1.89057 10.0941ZM11.532 6.85382C10.8621 6.471 10.7363 5.44014 11.2531 4.55421C11.7699 3.66827 12.7296 3.26085 13.3996 3.64366C14.0695 4.02647 14.1953 5.05733 13.6785 5.94327C13.1617 6.82921 12.2019 7.23663 11.532 6.85382ZM8.47768 4.31085C7.59448 4.021 7.19526 2.83702 7.58628 1.66397C7.97729 0.490925 9.01088 -0.225481 9.89409 0.0643628C10.7773 0.354207 11.1765 1.53819 10.7855 2.71124C10.3945 3.88428 9.36088 4.60069 8.47768 4.31085Z" fill="#8B9660"/>
</svg>
