<svg width="21" height="18" viewBox="0 0 21 18" fill="none" xmlns="http://www.w3.org/2000/svg">
<path d="M16.9559 6.75C18.1582 6.75 20.25 7.76953 20.25 9C20.25 10.2656 18.1582 11.25 16.9559 11.25H12.8566L9.32344 17.434C9.12305 17.7855 8.75039 18 8.34609 18H6.37031C5.99766 18 5.72695 17.6414 5.82891 17.2828L7.55156 11.25H3.9375L2.41875 13.275C2.31328 13.4156 2.14453 13.5 1.96875 13.5H0.492188C0.217969 13.5 0 13.2785 0 13.0078C0 12.9621 0.00703125 12.9164 0.0175781 12.8707L1.125 9L0.0175781 5.1293C0.00351562 5.08359 0 5.03789 0 4.99219C0 4.71797 0.221484 4.5 0.492188 4.5H1.96875C2.14453 4.5 2.31328 4.58437 2.41875 4.725L3.9375 6.75H7.55508L5.83242 0.717187C5.72695 0.358594 5.99766 0 6.37031 0H8.34609C8.75039 0 9.12305 0.217969 9.32344 0.566016L12.8566 6.75H16.9559Z" fill="#8B9660"/>
</svg>
