<svg width="14" height="14" viewBox="0 0 14 14" fill="none" xmlns="http://www.w3.org/2000/svg">
<path d="M5.25 0H0.75C0.334375 0 0 0.334375 0 0.75V5.25C0 5.55312 0.18125 5.82812 0.4625 5.94375C0.74375 6.05937 1.06562 5.99688 1.28125 5.78125L2.53125 4.53125L5 7L2.53125 9.46875L1.28125 8.21875C1.06562 8.00312 0.74375 7.94062 0.4625 8.05625C0.18125 8.17187 0 8.44688 0 8.75V13.25C0 13.6656 0.334375 14 0.75 14H5.25C5.55312 14 5.82812 13.8188 5.94375 13.5375C6.05937 13.2563 5.99688 12.9344 5.78125 12.7188L4.53125 11.4688L7 9L9.46875 11.4688L8.21875 12.7188C8.00312 12.9344 7.94062 13.2563 8.05625 13.5375C8.17187 13.8188 8.44688 14 8.75 14H13.25C13.6656 14 14 13.6656 14 13.25V8.75C14 8.44688 13.8188 8.17187 13.5375 8.05625C13.2563 7.94062 12.9344 8.00312 12.7188 8.21875L11.4688 9.46875L9 7L11.4688 4.53125L12.7188 5.78125C12.9344 5.99688 13.2563 6.05937 13.5375 5.94375C13.8188 5.82812 14 5.55312 14 5.25V0.75C14 0.334375 13.6656 0 13.25 0H8.75C8.44688 0 8.17187 0.18125 8.05625 0.4625C7.94062 0.74375 8.00312 1.06562 8.21875 1.28125L9.46875 2.53125L7 5L4.53125 2.53125L5.78125 1.28125C5.99688 1.06562 6.05937 0.74375 5.94375 0.4625C5.82812 0.18125 5.55312 0 5.25 0Z" fill="#D1D7B3"/>
</svg>
