<svg width="13" height="13" viewBox="0 0 13 13" fill="none" xmlns="http://www.w3.org/2000/svg">
<path d="M4.59375 0H0.65625C0.292578 0 0 0.292578 0 0.65625V4.59375C0 4.85898 0.158594 5.09961 0.404687 5.20078C0.650781 5.30195 0.932422 5.24727 1.12109 5.05859L2.21484 3.96484L4.375 6.125L2.21484 8.28516L1.12109 7.19141C0.932422 7.00273 0.650781 6.94805 0.404687 7.04922C0.158594 7.15039 0 7.39102 0 7.65625V11.5938C0 11.9574 0.292578 12.25 0.65625 12.25H4.59375C4.85898 12.25 5.09961 12.0914 5.20078 11.8453C5.30195 11.5992 5.24727 11.3176 5.05859 11.1289L3.96484 10.0352L6.125 7.875L8.28516 10.0352L7.19141 11.1289C7.00273 11.3176 6.94805 11.5992 7.04922 11.8453C7.15039 12.0914 7.39102 12.25 7.65625 12.25H11.5938C11.9574 12.25 12.25 11.9574 12.25 11.5938V7.65625C12.25 7.39102 12.0914 7.15039 11.8453 7.04922C11.5992 6.94805 11.3176 7.00273 11.1289 7.19141L10.0352 8.28516L7.875 6.125L10.0352 3.96484L11.1289 5.05859C11.3176 5.24727 11.5992 5.30195 11.8453 5.20078C12.0914 5.09961 12.25 4.85898 12.25 4.59375V0.65625C12.25 0.292578 11.9574 0 11.5938 0H7.65625C7.39102 0 7.15039 0.158594 7.04922 0.404687C6.94805 0.650781 7.00273 0.932422 7.19141 1.12109L8.28516 2.21484L6.125 4.375L3.96484 2.21484L5.05859 1.12109C5.24727 0.932422 5.30195 0.650781 5.20078 0.404687C5.09961 0.158594 4.85898 0 4.59375 0Z" fill="#8B9660"/>
</svg>
