<svg width="14" height="16" viewBox="0 0 14 16" fill="none" xmlns="http://www.w3.org/2000/svg">
<path d="M7.00162 0C7.55475 0 8.00162 0.446875 8.00162 1V1.94062L8.47037 1.47187C8.76412 1.17812 9.23912 1.17812 9.52975 1.47187C9.82037 1.76562 9.8235 2.24062 9.52975 2.53125L7.9985 4.0625V6.25938L9.91725 5.14062L10.4704 3.075C10.5766 2.675 10.9891 2.4375 11.3891 2.54375C11.7891 2.65 12.0266 3.0625 11.9204 3.4625L11.7579 4.06563L12.4954 3.63438C12.9735 3.35625 13.586 3.51875 13.8641 3.99375C14.1422 4.46875 13.9829 5.08438 13.5047 5.3625L12.7141 5.825L13.3922 6.00625C13.7922 6.1125 14.0297 6.525 13.9235 6.925C13.8172 7.325 13.4047 7.5625 13.0047 7.45625L10.8891 6.89062L8.986 8L10.8891 9.10938L13.0047 8.54375C13.4047 8.4375 13.8172 8.675 13.9235 9.075C14.0297 9.475 13.7922 9.8875 13.3922 9.99375L12.7141 10.175L13.5047 10.6375C13.9829 10.9156 14.1422 11.5281 13.8641 12.0063C13.586 12.4844 12.9735 12.6438 12.4954 12.3656L11.7579 11.9344L11.9204 12.5375C12.0266 12.9375 11.7891 13.35 11.3891 13.4563C10.9891 13.5625 10.5766 13.325 10.4704 12.925L9.91725 10.8594L8.00162 9.74063V11.9375L9.53287 13.4688C9.82662 13.7625 9.82662 14.2375 9.53287 14.5281C9.23912 14.8187 8.76412 14.8219 8.4735 14.5281L8.00475 14.0594V15C8.00475 15.5531 7.55787 16 7.00475 16C6.45162 16 6.00475 15.5531 6.00475 15V14.0594L5.536 14.5281C5.24225 14.8219 4.76725 14.8219 4.47662 14.5281C4.186 14.2344 4.18287 13.7594 4.47662 13.4688L6.00787 11.9375V9.74063L4.08912 10.8594L3.536 12.925C3.42975 13.325 3.01725 13.5625 2.61725 13.4563C2.21725 13.35 1.97975 12.9375 2.086 12.5375L2.2485 11.9344L1.50475 12.3625C1.02662 12.6406 0.414124 12.4781 0.135999 12.0031C-0.142126 11.5281 0.020374 10.9125 0.495374 10.6344L1.286 10.1719L0.607874 9.99063C0.207874 9.88438 -0.029626 9.47187 0.076624 9.07187C0.182874 8.67187 0.595374 8.43437 0.995374 8.54062L3.111 9.10625L5.01725 8L3.11412 6.89062L0.998499 7.45625C0.598499 7.5625 0.185999 7.325 0.079749 6.925C-0.026501 6.525 0.210999 6.1125 0.610999 6.00625L1.28912 5.825L0.498499 5.3625C0.020374 5.08438 -0.139001 4.47188 0.139124 3.99688C0.417249 3.52188 1.02975 3.35938 1.50787 3.6375L2.24537 4.06875L2.08287 3.46563C1.97662 3.06563 2.21412 2.65313 2.61412 2.54688C3.01412 2.44062 3.42662 2.67812 3.53287 3.07812L4.086 5.14375L6.00162 6.25938V4.05937L4.47037 2.53125C4.17662 2.2375 4.17662 1.7625 4.47037 1.47187C4.76412 1.18125 5.23912 1.17812 5.52975 1.47187L5.9985 1.94062V1C5.9985 0.446875 6.44537 0 6.9985 0H7.00162Z" fill="#8B9660"/>
</svg>
