<svg width="13" height="13" viewBox="0 0 13 13" fill="none" xmlns="http://www.w3.org/2000/svg">
<path d="M8.2332 0.0760391C8.54766 0.218227 8.75 0.529945 8.75 0.874477V11.3745C8.75 11.719 8.54766 12.0307 8.2332 12.1729C7.91875 12.3151 7.54961 12.2577 7.29258 12.028L3.60391 8.74948H1.75C0.784766 8.74948 0 7.96471 0 6.99948V5.24948C0 4.28424 0.784766 3.49948 1.75 3.49948H3.60391L7.29258 0.220961C7.54961 -0.00872654 7.91875 -0.063414 8.2332 0.0760391ZM11.282 4.08737C11.8699 4.56862 12.25 5.30143 12.25 6.12448C12.25 6.94752 11.8699 7.68034 11.282 8.16159C11.0004 8.39127 10.5875 8.34752 10.3578 8.06588C10.1281 7.78424 10.1719 7.37135 10.4535 7.14166C10.7488 6.90104 10.9375 6.53463 10.9375 6.12448C10.9375 5.71432 10.7488 5.34791 10.4535 5.10455C10.1719 4.87487 10.1309 4.46198 10.3578 4.18034C10.5848 3.8987 11.0004 3.85768 11.282 4.08463V4.08737Z" fill="#8B9660"/>
</svg>
