<svg width="18" height="18" viewBox="0 0 18 18" fill="none" xmlns="http://www.w3.org/2000/svg">
<path fill-rule="evenodd" clip-rule="evenodd" d="M4.35417 9.4374e-08C3.40933 9.4374e-08 2.5032 0.375334 1.8351 1.04343C1.167 1.71153 0.791667 2.61767 0.791667 3.5625V4.33635C0.791667 4.77573 1.04935 5.2349 1.54573 5.3109C1.833 5.3551 2.12534 5.3551 2.4126 5.3109C2.90898 5.2349 3.16667 4.77573 3.16667 4.33635V3.5625C3.16667 3.40656 3.19738 3.25214 3.25706 3.10806C3.31674 2.96399 3.40421 2.83308 3.51448 2.72281C3.62475 2.61254 3.75566 2.52507 3.89973 2.46539C4.0438 2.40572 4.19822 2.375 4.35417 2.375C4.51011 2.375 4.66453 2.40572 4.8086 2.46539C4.95268 2.52507 5.08359 2.61254 5.19386 2.72281C5.30413 2.83308 5.3916 2.96399 5.45127 3.10806C5.51095 3.25214 5.54167 3.40656 5.54167 3.5625V14.953C5.83292 15.0418 6.14039 15.0641 6.44142 15.0183C6.74244 14.9725 7.02934 14.8597 7.28096 14.6882C7.47848 14.5542 7.69206 14.4455 7.91667 14.3648V13.0625H15.4375V14.3648C15.6592 14.4448 15.8729 14.5524 16.0732 14.6882C16.4223 14.9249 16.8213 15.0417 17.2188 15.0417C17.427 15.0417 17.6265 15.0773 17.8125 15.143V3.5625C17.8125 3.09467 17.7204 2.63141 17.5413 2.19919C17.3623 1.76697 17.0999 1.37424 16.7691 1.04343C16.4383 0.712623 16.0455 0.450212 15.6133 0.271179C15.1811 0.0921469 14.7178 0 14.25 0C13.7822 0 13.3189 0.0921469 12.8867 0.271179C12.4545 0.450212 12.0617 0.712623 11.7309 1.04343C11.4001 1.37424 11.1377 1.76697 10.9587 2.19919C10.7796 2.63141 10.6875 3.09467 10.6875 3.5625V4.33635C10.6875 4.77573 10.9452 5.2349 11.4416 5.3109C11.7288 5.3551 12.0212 5.3551 12.3084 5.3109C12.8048 5.2349 13.0625 4.77573 13.0625 4.33635V3.5625C13.0625 3.24756 13.1876 2.94551 13.4103 2.72281C13.633 2.50011 13.9351 2.375 14.25 2.375C14.5649 2.375 14.867 2.50011 15.0897 2.72281C15.3124 2.94551 15.4375 3.24756 15.4375 3.5625V6.72917H7.91667V3.5625C7.91667 2.61767 7.54133 1.71153 6.87323 1.04343C6.20514 0.375334 5.299 9.4374e-08 4.35417 9.4374e-08ZM7.91667 8.70833V11.0833H15.4375V8.70833H7.91667ZM4.32329 15.671C4.0395 15.4815 3.70587 15.3803 3.36458 15.3803C3.02329 15.3803 2.68966 15.4815 2.40588 15.671C1.87149 16.0346 1.2401 16.2291 0.59375 16.2292C0.436278 16.2292 0.285255 16.2917 0.173905 16.4031C0.0625556 16.5144 0 16.6654 0 16.8229C0 16.9804 0.0625556 17.1314 0.173905 17.2428C0.285255 17.3541 0.436278 17.4167 0.59375 17.4167H17.2188C17.3762 17.4167 17.5272 17.3541 17.6386 17.2428C17.7499 17.1314 17.8125 16.9804 17.8125 16.8229C17.8125 16.6654 17.7499 16.5144 17.6386 16.4031C17.5272 16.2917 17.3762 16.2292 17.2188 16.2292C16.5874 16.2292 15.956 16.0431 15.4066 15.671C15.1228 15.4815 14.7892 15.3803 14.4479 15.3803C14.1066 15.3803 13.773 15.4815 13.4892 15.671C12.9398 16.0431 12.3084 16.2292 11.6771 16.2292C11.0457 16.2292 10.4144 16.0431 9.86496 15.671C9.58117 15.4815 9.24754 15.3803 8.90625 15.3803C8.56496 15.3803 8.23133 15.4815 7.94754 15.671C7.39813 16.0431 6.76677 16.2292 6.13542 16.2292C5.50406 16.2292 4.87271 16.0431 4.32329 15.671Z" fill="#6B7280"/>
</svg>
