<svg width="22" height="18" viewBox="0 0 22 18" fill="none" xmlns="http://www.w3.org/2000/svg">
<path d="M4.88653 3.73828C4.88653 1.67578 6.52507 0 8.54174 0C10.3865 0 11.941 1.40625 12.1702 3.27734L12.2084 3.59766C12.2924 4.28125 11.8188 4.90625 11.1466 4.99219C10.4744 5.07812 9.86709 4.59375 9.78306 3.90625L9.74486 3.58594C9.66848 2.96484 9.15285 2.5 8.54174 2.5C7.87334 2.5 7.33098 3.05469 7.33098 3.73828V7.5H14.6643V3.73828C14.6643 1.67578 16.3029 0 18.3195 0C20.1643 0 21.7188 1.40625 21.948 3.27734L21.9862 3.59766C22.0702 4.28125 21.5966 4.90625 20.9244 4.99219C20.2522 5.07812 19.6449 4.59375 19.5608 3.90625L19.5226 3.58594C19.4463 2.96484 18.9306 2.5 18.3195 2.5C17.6511 2.5 17.1088 3.05469 17.1088 3.73828V12.8516C17.0476 12.8906 16.9827 12.9297 16.9254 12.9727C16.2379 13.457 15.3938 13.7656 14.6643 13.7656V10H7.33098V13.7695C6.60528 13.7695 5.75736 13.4609 5.07368 12.9766C5.01257 12.9336 4.95146 12.8906 4.88653 12.8555V3.73828ZM11.7042 13.9805C12.5636 14.5859 13.614 15 14.6643 15C15.6917 15 16.7803 14.5781 17.6206 13.9805C18.0751 13.6484 18.6938 13.6758 19.1178 14.0469C19.6678 14.5117 20.3591 14.8672 21.0504 15.0312C21.7074 15.1875 22.116 15.8594 21.9633 16.5312C21.8105 17.2031 21.1535 17.6211 20.4966 17.4648C19.5608 17.2422 18.7817 16.8203 18.2737 16.4883C17.166 17.0977 15.9247 17.5 14.6643 17.5C13.4459 17.5 12.3497 17.1133 11.5935 16.7617C11.3719 16.6562 11.1695 16.5547 10.9976 16.4609C10.8258 16.5547 10.6272 16.6602 10.4018 16.7617C9.64556 17.1133 8.54938 17.5 7.33098 17.5C6.07056 17.5 4.82924 17.0977 3.7216 16.4922C3.20979 16.8203 2.43445 17.2461 1.49868 17.4688C0.841739 17.625 0.184794 17.207 0.0320166 16.5352C-0.120761 15.8633 0.287919 15.1914 0.944864 15.0352C1.63618 14.8711 2.3275 14.5156 2.8775 14.0508C3.30146 13.6836 3.92021 13.6562 4.37473 13.9844C5.21882 14.5781 6.30354 15 7.33098 15C8.38132 15 9.43167 14.5859 10.291 13.9805C10.715 13.6719 11.2803 13.6719 11.7042 13.9805Z" fill="#D1D7B3"/>
</svg>
