<svg width="34" height="27" viewBox="0 0 34 27" fill="none" xmlns="http://www.w3.org/2000/svg">
<path d="M7.49638 5.60742C7.49638 2.51367 10.0101 0 13.1038 0C15.9339 0 18.3186 2.10938 18.6702 4.91602L18.7288 5.39649C18.8577 6.42188 18.1311 7.35938 17.0999 7.48828C16.0686 7.61719 15.137 6.89063 15.0081 5.85938L14.9495 5.37891C14.8323 4.44727 14.0413 3.75 13.1038 3.75C12.0784 3.75 11.2464 4.58203 11.2464 5.60742V11.25H22.4964V5.60742C22.4964 2.51367 25.0101 0 28.1038 0C30.9339 0 33.3186 2.10938 33.6702 4.91602L33.7288 5.39649C33.8577 6.42188 33.1311 7.35938 32.0999 7.48828C31.0686 7.61719 30.137 6.89063 30.0081 5.85938L29.9495 5.37891C29.8323 4.44727 29.0413 3.75 28.1038 3.75C27.0784 3.75 26.2464 4.58203 26.2464 5.60742V19.2773C26.1526 19.3359 26.053 19.3945 25.9651 19.459C24.9104 20.1855 23.6155 20.6484 22.4964 20.6484V15H11.2464V20.6543C10.1331 20.6543 8.83232 20.1914 7.78349 19.4648C7.68974 19.4004 7.59599 19.3359 7.49638 19.2832V5.60742ZM17.9554 20.9707C19.2737 21.8789 20.8851 22.5 22.4964 22.5C24.0726 22.5 25.7425 21.8672 27.0315 20.9707C27.7288 20.4727 28.678 20.5137 29.3284 21.0703C30.1722 21.7676 31.2327 22.3008 32.2933 22.5469C33.3011 22.7813 33.928 23.7891 33.6936 24.7969C33.4593 25.8047 32.4515 26.4316 31.4436 26.1973C30.0081 25.8633 28.8128 25.2305 28.0335 24.7324C26.3343 25.6465 24.43 26.25 22.4964 26.25C20.6272 26.25 18.9456 25.6699 17.7854 25.1426C17.4456 24.9844 17.1351 24.832 16.8714 24.6914C16.6077 24.832 16.303 24.9902 15.9573 25.1426C14.7972 25.6699 13.1155 26.25 11.2464 26.25C9.31279 26.25 7.40849 25.6465 5.70927 24.7383C4.92412 25.2305 3.73466 25.8691 2.29912 26.2031C1.2913 26.4375 0.283491 25.8105 0.0491163 24.8027C-0.185259 23.7949 0.441694 22.7871 1.44951 22.5527C2.51005 22.3066 3.5706 21.7734 4.41435 21.0762C5.06474 20.5254 6.01396 20.4844 6.71123 20.9766C8.00615 21.8672 9.67021 22.5 11.2464 22.5C12.8577 22.5 14.469 21.8789 15.7874 20.9707C16.4378 20.5078 17.305 20.5078 17.9554 20.9707Z" fill="#8B9660"/>
</svg>
