<svg width="20" height="22" viewBox="0 0 20 22" fill="none" xmlns="http://www.w3.org/2000/svg">
<path d="M0.75 12.75L1.75 17.75M1.75 17.75L0.75 20.75M1.75 17.75H4.403C5.107 17.75 5.273 17.89 5.389 18.586L5.75 20.75M18.75 12.75L17.75 17.75M17.75 17.75L18.75 20.75M17.75 17.75H15.097C14.393 17.75 14.227 17.89 14.111 18.586L13.75 20.75M9.75 8.75V20.75M8.75 20.75H10.75M6.75 13.75H12.75M2.35 6.157C4.42 5.188 6.503 3.65 8.04 2.114C8.949 1.204 9.404 0.75 9.75 0.75C10.096 0.75 10.55 1.205 11.461 2.114C12.997 3.649 15.08 5.188 17.149 6.157C17.853 6.487 18.283 6.893 18.623 7.685C18.883 8.29 18.766 8.75 18.057 8.75H1.443C0.733 8.75 0.617 8.29 0.877 7.685C1.217 6.893 1.647 6.487 2.35 6.157Z" stroke="#8B9660" stroke-width="1.5" stroke-linecap="round" stroke-linejoin="round"/>
</svg>
