<svg width="27" height="30" viewBox="0 0 27 30" fill="none" xmlns="http://www.w3.org/2000/svg">
<path d="M12.3398 0.345703L3.63281 9.92578C3.4043 10.1719 3.28125 10.5 3.28125 10.834C3.28125 11.584 3.88477 12.1875 4.63477 12.1875H6.09375L1.79297 16.4883C1.54688 16.7344 1.40625 17.0742 1.40625 17.4258C1.40625 18.1582 1.99805 18.75 2.73047 18.75H4.6875L0.316406 23.9941C0.111328 24.2402 0 24.5508 0 24.873C0 25.6348 0.615234 26.25 1.37695 26.25H11.25V28.125C11.25 29.1621 12.0879 30 13.125 30C14.1621 30 15 29.1621 15 28.125V26.25H24.873C25.6348 26.25 26.25 25.6348 26.25 24.873C26.25 24.5508 26.1387 24.2402 25.9336 23.9941L21.5625 18.75H23.5195C24.252 18.75 24.8438 18.1582 24.8438 17.4258C24.8438 17.0742 24.7031 16.7344 24.457 16.4883L20.1562 12.1875H21.6152C22.3594 12.1875 22.9688 11.584 22.9688 10.834C22.9688 10.5 22.8457 10.1719 22.6172 9.92578L13.9102 0.345703C13.7109 0.123047 13.4238 0 13.125 0C12.8262 0 12.5391 0.123047 12.3398 0.345703Z" fill="#8B9660"/>
</svg>
