<svg width="30" height="22" viewBox="0 0 30 22" fill="none" xmlns="http://www.w3.org/2000/svg">
<path d="M25.0125 0.255502C28.0547 2.7305 30 6.50394 30 10.7321C30 14.9602 28.0547 18.7383 25.0125 21.2086C24.5297 21.6024 23.8219 21.5274 23.4281 21.0446C23.0344 20.5618 23.1094 19.8539 23.5922 19.4602C26.1328 17.3977 27.75 14.2571 27.75 10.7321C27.75 7.20706 26.1328 4.06644 23.5922 1.99925C23.1094 1.6055 23.0391 0.897689 23.4281 0.414877C23.8172 -0.0679356 24.5297 -0.138248 25.0125 0.250814V0.255502ZM22.1766 3.74769C24.2016 5.39769 25.5 7.91488 25.5 10.7321C25.5 13.5493 24.2016 16.0664 22.1766 17.7164C21.6938 18.1102 20.9859 18.0352 20.5922 17.5524C20.1984 17.0696 20.2734 16.3618 20.7562 15.968C22.2797 14.7305 23.25 12.8461 23.25 10.7321C23.25 8.618 22.2797 6.73363 20.7562 5.49144C20.2734 5.09769 20.2031 4.38988 20.5922 3.90706C20.9812 3.42425 21.6938 3.35394 22.1766 3.743V3.74769ZM19.3406 7.23988C20.3484 8.06488 21 9.32113 21 10.7321C21 12.143 20.3484 13.3993 19.3406 14.2243C18.8578 14.618 18.15 14.543 17.7562 14.0602C17.3625 13.5774 17.4375 12.8696 17.9203 12.4758C18.4266 12.0633 18.75 11.4352 18.75 10.7321C18.75 10.0289 18.4266 9.40081 17.9203 8.98363C17.4375 8.58988 17.3672 7.88206 17.7562 7.39925C18.1453 6.91644 18.8578 6.84613 19.3406 7.23519V7.23988ZM14.1141 0.363314C14.6531 0.607064 15 1.14144 15 1.73206V19.7321C15 20.3227 14.6531 20.8571 14.1141 21.1008C13.575 21.3446 12.9422 21.2461 12.5016 20.8524L6.17813 15.2321H3C1.34531 15.2321 0 13.8868 0 12.2321V9.23206C0 7.57738 1.34531 6.23206 3 6.23206H6.17813L12.5016 0.611752C12.9422 0.218002 13.575 0.124252 14.1141 0.363314Z" fill="#8B9660"/>
</svg>
